<svg id="Layer_1" data-name="Layer 1" xmlns="http://www.w3.org/2000/svg" viewBox="0 0 1024 768"><defs><style>.cls-1{fill:#fff;}.cls-1,.cls-2,.cls-3,.cls-4,.cls-5,.cls-6{stroke:#652d90;}.cls-1,.cls-2,.cls-6{stroke-miterlimit:10;}.cls-1,.cls-2{stroke-width:8px;}.cls-2,.cls-6{fill:none;}.cls-3{font-size:60px;}.cls-3,.cls-4,.cls-5{fill:#662d91;}.cls-3,.cls-4{stroke-width:3px;font-family:Avenir-Light, Avenir;}.cls-4{font-size:49px;}.cls-5{stroke-linejoin:bevel;}.cls-5,.cls-6{stroke-width:5px;}</style></defs><title>Logo</title><circle class="cls-1" cx="512" cy="384" r="341.73"/><circle class="cls-2" cx="512" cy="384" r="256"/><text class="cls-3" transform="translate(217.23 509.96) rotate(64.08) scale(0.92 1)">S</text><text class="cls-3" transform="matrix(0.51, 0.77, -0.84, 0.55, 236.42, 547.58)">a</text><text class="cls-3" transform="matrix(0.6, 0.7, -0.76, 0.65, 258.99, 580.72)">n</text><text class="cls-3" transform="matrix(0.69, 0.61, -0.66, 0.75, 287.45, 612.76)">d</text><text class="cls-3" transform="matrix(0.77, 0.51, -0.55, 0.83, 322.43, 642.42)">e</text><text class="cls-3" transform="matrix(0.82, 0.42, -0.46, 0.89, 356.92, 664.25)">r</text><text class="cls-3" transform="translate(381.55 676.64) rotate(21.94) scale(0.92 1)">s</text><text class="cls-3" transform="matrix(0.89, 0.24, -0.26, 0.97, 413.88, 689.22)">o</text><text class="cls-3" transform="translate(457.52 699.86) rotate(6.98) scale(0.92 1)">n</text><text class="cls-3" transform="translate(497.45 703.86) rotate(1.3) scale(0.92 1)"> </text><text class="cls-3" transform="translate(519.13 704.11) rotate(-2.52) scale(0.92 1)">I</text><text class="cls-3" transform="translate(543.16 703) rotate(-8.35) scale(0.92 1)">P</text><text class="cls-3" transform="translate(583.99 696.06) rotate(-14.24) scale(0.92 1)"> </text><text class="cls-3" transform="matrix(0.87, -0.31, 0.34, 0.94, 606.79, 690.14)">L</text><text class="cls-3" transform="translate(643.07 676.47) rotate(-26.74) scale(0.92 1)">a</text><text class="cls-3" transform="matrix(0.75, -0.53, 0.57, 0.82, 679.71, 657.4)">w</text><text class="cls-3" transform="translate(716.49 630.39) rotate(-41) scale(0.92 1)">,</text><text class="cls-3" transform="translate(732.69 615.98) rotate(-44.86) scale(0.92 1)"> </text><text class="cls-3" transform="matrix(0.59, -0.71, 0.77, 0.64, 749.25, 599.35)">L</text><text class="cls-3" transform="matrix(0.51, -0.76, 0.83, 0.56, 772.53, 570.25)">t</text><text class="cls-3" transform="matrix(0.42, -0.82, 0.89, 0.46, 788.57, 546.16)">d</text><text class="cls-3" transform="translate(807.77 506.85) rotate(-68.72) scale(0.92 1)">.</text><text class="cls-4" transform="matrix(0.33, -0.94, 0.94, 0.33, 245.14, 304.18)">P</text><text class="cls-4" transform="translate(256.17 274.02) rotate(-64.08)">a</text><text class="cls-4" transform="matrix(0.52, -0.86, 0.86, 0.52, 269.44, 247.59)">t</text><text class="cls-4" transform="matrix(0.59, -0.8, 0.8, 0.59, 279.95, 230.05)">e</text><text class="cls-4" transform="matrix(0.68, -0.73, 0.73, 0.68, 298.66, 205.06)">n</text><text class="cls-4" transform="translate(320.3 182.35) rotate(-41.89)">t</text><text class="cls-4" transform="matrix(0.79, -0.62, 0.62, 0.79, 335.81, 168.71)"> </text><text class="cls-4" transform="matrix(0.84, -0.53, 0.53, 0.84, 348.87, 158.08)">&amp;</text><text class="cls-4" transform="translate(381.84 138.08) rotate(-26.62)"> </text><text class="cls-4" transform="translate(396.9 130.36) rotate(-21.53)">T</text><text class="cls-4" transform="translate(422.89 120.35) rotate(-16.97)">r</text><text class="cls-4" transform="translate(442.46 114.35) rotate(-11.79)">a</text><text class="cls-4" transform="translate(471.26 108.45) rotate(-5.26)">d</text><text class="cls-4" transform="translate(505.04 105.65) rotate(1.35)">e</text><text class="cls-4" transform="matrix(0.99, 0.16, -0.16, 0.99, 536.1, 106.13)">m</text><text class="cls-4" transform="matrix(0.96, 0.29, -0.29, 0.96, 580.91, 114.19)">a</text><text class="cls-4" transform="matrix(0.93, 0.38, -0.38, 0.93, 609.09, 123.18)">r</text><text class="cls-4" transform="matrix(0.89, 0.46, -0.46, 0.89, 628.06, 130.91)">k</text><text class="cls-4" transform="translate(652.61 143.92) rotate(31.72)"> </text><text class="cls-4" transform="translate(667.14 152.51) rotate(37.42)">C</text><text class="cls-4" transform="matrix(0.71, 0.7, -0.7, 0.71, 697.34, 176.14)">o</text><text class="cls-4" transform="matrix(0.63, 0.78, -0.78, 0.63, 720.63, 199.6)">u</text><text class="cls-4" transform="matrix(0.53, 0.85, -0.85, 0.53, 739.97, 224.09)">n</text><text class="cls-4" transform="matrix(0.45, 0.89, -0.89, 0.45, 756.39, 250.74)">s</text><text class="cls-4" transform="matrix(0.35, 0.94, -0.94, 0.35, 767.49, 273.1)">e</text><text class="cls-4" transform="translate(778.09 302.65) rotate(74.24)">l</text><polyline class="cls-2" points="285.75 503.83 357.86 384 374.46 414.85 419 497.65"/><polyline class="cls-2" points="655.08 466.4 706.28 381.32 718.07 403.22 753.45 467.17"/><path class="cls-5" d="M387.61,250.81a24.84,24.84,0,0,1-5,.52,24.26,24.26,0,1,1,5-48,24.26,24.26,0,0,0,0,47.48Z"/><polyline class="cls-1" points="545.09 379.53 588.58 307.99 672.08 438.55"/><polyline class="cls-2" points="387.61 438.76 487.08 273.11 510.36 316.4 606.79 494"/><polyline class="cls-2" points="522.79 514.18 537.18 504.34 551.56 514.18"/><polyline class="cls-2" points="519.46 533 537.18 517.72 554.9 533"/><line class="cls-2" x1="537.18" y1="555.54" x2="537.18" y2="520.56"/><path class="cls-6" d="M687.76,572.44c-48.19-10.67-110.65-17.11-178.88-17.11-65.92,0-126.44,6-173.93,16"/></svg>